<svg xmlns="http://www.w3.org/2000/svg" viewBox="0 0 4.19 4.19"><defs><style>.cls-1{fill:#fff;}.cls-2{fill:#144a80;fill-rule:evenodd;}</style></defs><g id="Capa_2" data-name="Capa 2"><g id="Layer_1" data-name="Layer 1"><path class="cls-1" d="M4.19,2.1A2.1,2.1,0,1,1,2.09,0,2.1,2.1,0,0,1,4.19,2.1Z"/><path class="cls-2" d="M2.93,1H1.26a.27.27,0,0,0-.3.3V2.93a.27.27,0,0,0,.29.3H2.93a.27.27,0,0,0,.3-.3V1.26A.27.27,0,0,0,2.93,1Zm-.18.25c.22,0,.22,0,.22.23s0,.21-.22.21-.22,0-.22-.22S2.53,1.22,2.75,1.22Zm-.65.44a.44.44,0,0,1,.43.44.44.44,0,0,1-.87,0A.44.44,0,0,1,2.1,1.66ZM3,2.83c0,.11,0,.14-.13.14H1.35c-.1,0-.13,0-.13-.14V2c0-.08,0-.1.09-.09s.11,0,.1.1A.7.7,0,0,0,2,2.78a.71.71,0,0,0,.81-.49.7.7,0,0,0,0-.32s0-.05,0-.05.16,0,.16.15Z"/></g></g></svg>