<svg xmlns="http://www.w3.org/2000/svg" viewBox="0 0 4.19 4.19"><defs><style>.cls-1{fill:#fff;}.cls-2{fill:#144a80;}</style></defs><g id="Capa_2" data-name="Capa 2"><g id="Layer_1" data-name="Layer 1"><path class="cls-1" d="M4.19,2.09A2.09,2.09,0,0,1,2.28,4.18H2.1a2.31,2.31,0,0,1-.46-.05,2.1,2.1,0,1,1,2.55-2Z"/><path class="cls-2" d="M2.34,1.65a.26.26,0,0,1,.19-.06,1,1,0,0,1,.28,0l.08-.44a1.49,1.49,0,0,0-.52-.08.81.81,0,0,0-.43.1.47.47,0,0,0-.23.23,1.24,1.24,0,0,0-.07.45v.17H1.3v.5h.34V4.14a2.31,2.31,0,0,0,.46.05h.18V2.56h.46v-.5H2.28V1.9C2.28,1.77,2.29,1.7,2.34,1.65Z"/></g></g></svg>